<svg width="15" height="16" viewBox="0 0 15 16" fill="none" xmlns="http://www.w3.org/2000/svg">
<path d="M11.5 6.66668L8.83331 4.00001M1.16663 14.3333L3.42287 14.0826C3.69853 14.052 3.83636 14.0367 3.96519 13.995C4.07949 13.958 4.18826 13.9057 4.28855 13.8396C4.4016 13.765 4.49966 13.667 4.69578 13.4709L13.5 4.66668C14.2364 3.9303 14.2364 2.73639 13.5 2.00001C12.7636 1.26363 11.5697 1.26363 10.8333 2.00001L2.02911 10.8042C1.83299 11.0003 1.73493 11.0984 1.66038 11.2114C1.59425 11.3117 1.54197 11.4205 1.50497 11.5348C1.46326 11.6636 1.44795 11.8014 1.41732 12.0771L1.16663 14.3333Z" stroke="white" stroke-width="1.6" stroke-linecap="round" stroke-linejoin="round"/>
</svg>
